<svg width="25" height="24" viewBox="0 0 25 24" fill="none" xmlns="http://www.w3.org/2000/svg">
<path fill-rule="evenodd" clip-rule="evenodd" d="M22.322 12C22.322 17.5228 17.8449 22 12.322 22C6.79917 22 2.32202 17.5228 2.32202 12C2.32202 6.47715 6.79917 2 12.322 2C17.8449 2 22.322 6.47715 22.322 12ZM24.322 12C24.322 18.6274 18.9494 24 12.322 24C5.6946 24 0.322021 18.6274 0.322021 12C0.322021 5.37258 5.6946 0 12.322 0C18.9494 0 24.322 5.37258 24.322 12ZM16.322 12C16.322 14.2091 14.5312 16 12.322 16C10.1129 16 8.32202 14.2091 8.32202 12C8.32202 9.79086 10.1129 8 12.322 8C14.5312 8 16.322 9.79086 16.322 12ZM18.322 12C18.322 15.3137 15.6357 18 12.322 18C9.00831 18 6.32202 15.3137 6.32202 12C6.32202 8.68629 9.00831 6 12.322 6C15.6357 6 18.322 8.68629 18.322 12Z" fill="#0A0A0A"/>
</svg>
