<svg width="170" height="40" viewBox="0 0 170 40" fill="none" xmlns="http://www.w3.org/2000/svg">
<path d="M153.082 27.208V15.9138H154.747L154.83 18.7165H154.885C154.922 18.587 155.006 18.3743 155.135 18.0783C155.283 17.7638 155.487 17.44 155.746 17.107C156.023 16.774 156.384 16.4965 156.828 16.2745C157.272 16.034 157.836 15.9138 158.521 15.9138C159.224 15.9138 159.797 16.0525 160.241 16.33C160.685 16.589 161.027 16.9313 161.268 17.3568C161.508 17.7823 161.693 18.2355 161.823 18.7165H161.878C161.915 18.5685 162.008 18.3465 162.156 18.0505C162.304 17.7545 162.526 17.44 162.822 17.107C163.118 16.774 163.497 16.4965 163.96 16.2745C164.441 16.034 165.023 15.9138 165.708 15.9138C166.429 15.9138 167.021 16.0618 167.484 16.3578C167.965 16.6353 168.344 17.0145 168.622 17.4955C168.899 17.958 169.093 18.4483 169.204 18.9663C169.334 19.4843 169.417 19.9838 169.454 20.4648C169.491 20.9458 169.51 21.3343 169.51 21.6303V27.208H167.761V21.6303C167.761 21.3158 167.743 20.9365 167.706 20.4925C167.687 20.03 167.595 19.5768 167.428 19.1328C167.28 18.6703 167.031 18.291 166.679 17.995C166.328 17.6805 165.828 17.5233 165.181 17.5233C164.478 17.5233 163.895 17.7268 163.432 18.1338C162.988 18.5408 162.665 19.0773 162.461 19.7433C162.258 20.3908 162.156 21.0938 162.156 21.8523V27.208H160.435V21.6303C160.435 21.3158 160.417 20.9365 160.38 20.4925C160.343 20.03 160.25 19.5768 160.102 19.1328C159.954 18.6703 159.705 18.291 159.353 17.995C159.002 17.6805 158.502 17.5233 157.855 17.5233C157.133 17.5233 156.55 17.7268 156.106 18.1338C155.662 18.5408 155.339 19.0773 155.135 19.7433C154.932 20.3908 154.83 21.0938 154.83 21.8523V27.208H153.082Z" fill="#1E1E1E"/>
<path d="M144.914 27.4855C144.193 27.4855 143.573 27.3745 143.055 27.1525C142.556 26.9305 142.139 26.6345 141.806 26.2645C141.492 25.876 141.251 25.4413 141.085 24.9603C140.918 24.4608 140.798 23.9428 140.724 23.4063C140.669 22.8513 140.641 22.2963 140.641 21.7413V15.9138H142.417V21.769C142.417 22.509 142.491 23.1935 142.639 23.8225C142.805 24.4515 143.111 24.951 143.555 25.321C143.999 25.691 144.655 25.876 145.525 25.876C146.357 25.876 147.005 25.6818 147.467 25.2933C147.948 24.9048 148.3 24.4145 148.522 23.8225C148.744 23.212 148.873 22.5738 148.91 21.9078V15.9138H150.742V27.208H149.216L148.91 24.6828H148.855C148.781 24.9233 148.651 25.2008 148.466 25.5153C148.3 25.8298 148.059 26.135 147.745 26.431C147.43 26.727 147.033 26.9768 146.552 27.1803C146.089 27.3838 145.543 27.4855 144.914 27.4855Z" fill="#1E1E1E"/>
<path d="M135.885 27.208C135.219 27.208 134.748 27.023 134.47 26.653C134.193 26.283 134.054 25.7743 134.054 25.1268V16.996H135.774V25.765H138.411V27.208H135.885ZM132.278 17.2457V15.9138C132.722 15.9138 133.073 15.8953 133.332 15.8583C133.61 15.8028 133.813 15.6918 133.943 15.5253C134.072 15.3403 134.156 15.0442 134.193 14.6372C134.23 14.2302 134.248 13.6845 134.248 13H135.774V15.9138H138.383V17.2457H132.278Z" fill="#1E1E1E"/>
<path d="M114.438 27.208V15.9138H116.102L116.186 18.7165H116.241C116.278 18.587 116.362 18.3743 116.491 18.0783C116.639 17.7638 116.842 17.44 117.101 17.107C117.379 16.774 117.74 16.4965 118.184 16.2745C118.628 16.034 119.192 15.9138 119.876 15.9138C120.579 15.9138 121.153 16.0525 121.597 16.33C122.041 16.589 122.383 16.9313 122.624 17.3568C122.864 17.7823 123.049 18.2355 123.179 18.7165H123.234C123.271 18.5685 123.364 18.3465 123.512 18.0505C123.66 17.7545 123.882 17.44 124.178 17.107C124.474 16.774 124.853 16.4965 125.316 16.2745C125.797 16.034 126.379 15.9138 127.064 15.9138C127.785 15.9138 128.377 16.0618 128.84 16.3578C129.321 16.6353 129.7 17.0145 129.977 17.4955C130.255 17.958 130.449 18.4483 130.56 18.9663C130.69 19.4843 130.773 19.9838 130.81 20.4648C130.847 20.9458 130.865 21.3343 130.865 21.6303V27.208H129.117V21.6303C129.117 21.3158 129.099 20.9365 129.062 20.4925C129.043 20.03 128.951 19.5768 128.784 19.1328C128.636 18.6703 128.387 18.291 128.035 17.995C127.684 17.6805 127.184 17.5233 126.537 17.5233C125.834 17.5233 125.251 17.7268 124.788 18.1338C124.344 18.5408 124.02 19.0773 123.817 19.7433C123.613 20.3908 123.512 21.0938 123.512 21.8523V27.208H121.791V21.6303C121.791 21.3158 121.773 20.9365 121.736 20.4925C121.699 20.03 121.606 19.5768 121.458 19.1328C121.31 18.6703 121.06 18.291 120.709 17.995C120.357 17.6805 119.858 17.5233 119.21 17.5233C118.489 17.5233 117.906 17.7268 117.462 18.1338C117.018 18.5408 116.695 19.0773 116.491 19.7433C116.288 20.3908 116.186 21.0938 116.186 21.8523V27.208H114.438Z" fill="#1E1E1E"/>
<path d="M107.051 27.4855C105.812 27.4855 104.785 27.208 103.971 26.653C103.176 26.0795 102.584 25.3488 102.195 24.4608C101.825 23.5543 101.64 22.62 101.64 21.658C101.64 20.6035 101.844 19.6415 102.251 18.772C102.676 17.884 103.287 17.181 104.082 16.663C104.896 16.145 105.867 15.886 106.996 15.886C107.976 15.886 108.837 16.0988 109.577 16.5243C110.335 16.9313 110.936 17.5233 111.38 18.3003C111.843 19.0773 112.102 19.993 112.157 21.0475C112.176 21.1215 112.185 21.2325 112.185 21.3805C112.185 21.51 112.185 21.6303 112.185 21.7413H103.361C103.361 23.0548 103.675 24.0908 104.304 24.8493C104.952 25.5893 105.858 25.9593 107.024 25.9593C107.893 25.9593 108.633 25.7373 109.244 25.2933C109.873 24.8493 110.261 24.248 110.409 23.4895H112.157C112.028 24.248 111.741 24.9325 111.297 25.543C110.853 26.1535 110.27 26.6345 109.549 26.986C108.827 27.319 107.995 27.4855 107.051 27.4855ZM103.416 20.77H110.354C110.354 20.474 110.289 20.141 110.159 19.771C110.048 19.3825 109.863 19.0125 109.604 18.661C109.345 18.291 109.003 17.9858 108.578 17.7453C108.152 17.5048 107.616 17.3845 106.968 17.3845C106.395 17.3845 105.895 17.4863 105.47 17.6898C105.044 17.8748 104.683 18.1338 104.387 18.4668C104.11 18.7813 103.888 19.142 103.721 19.549C103.573 19.956 103.472 20.363 103.416 20.77Z" fill="#1E1E1E"/>
<path d="M83.3 27.208V15.9138H84.965L85.0483 18.7165H85.1038C85.1408 18.587 85.224 18.3743 85.3535 18.0783C85.5015 17.7638 85.705 17.44 85.964 17.107C86.2415 16.774 86.6023 16.4965 87.0463 16.2745C87.4903 16.034 88.0545 15.9138 88.739 15.9138C89.442 15.9138 90.0155 16.0525 90.4595 16.33C90.9035 16.589 91.2458 16.9313 91.4863 17.3568C91.7268 17.7823 91.9118 18.2355 92.0413 18.7165H92.0968C92.1338 18.5685 92.2263 18.3465 92.3743 18.0505C92.5223 17.7545 92.7443 17.44 93.0403 17.107C93.3363 16.774 93.7155 16.4965 94.178 16.2745C94.659 16.034 95.2418 15.9138 95.9263 15.9138C96.6478 15.9138 97.2398 16.0618 97.7023 16.3578C98.1833 16.6353 98.5625 17.0145 98.84 17.4955C99.1175 17.958 99.3118 18.4483 99.4228 18.9663C99.5523 19.4843 99.6356 19.9838 99.6726 20.4648C99.7096 20.9458 99.7281 21.3343 99.7281 21.6303V27.208H97.9798V21.6303C97.9798 21.3158 97.9613 20.9365 97.9243 20.4925C97.9058 20.03 97.8133 19.5768 97.6468 19.1328C97.4988 18.6703 97.2491 18.291 96.8975 17.995C96.546 17.6805 96.0465 17.5233 95.399 17.5233C94.696 17.5233 94.1133 17.7268 93.6508 18.1338C93.2068 18.5408 92.883 19.0773 92.6796 19.7433C92.4761 20.3908 92.3743 21.0938 92.3743 21.8523V27.208H90.6538V21.6303C90.6538 21.3158 90.6353 20.9365 90.5983 20.4925C90.5613 20.03 90.4688 19.5768 90.3208 19.1328C90.1728 18.6703 89.923 18.291 89.5715 17.995C89.22 17.6805 88.7205 17.5233 88.073 17.5233C87.3515 17.5233 86.7688 17.7268 86.3248 18.1338C85.8808 18.5408 85.557 19.0773 85.3535 19.7433C85.15 20.3908 85.0483 21.0938 85.0483 21.8523V27.208H83.3Z" fill="#1E1E1E"/>
<path d="M75.7234 27.4855C74.5209 27.4855 73.5126 27.2358 72.6986 26.7363C71.9031 26.2368 71.3019 25.5523 70.8949 24.6828C70.5064 23.8133 70.3121 22.8235 70.3121 21.7135C70.3121 20.585 70.5064 19.586 70.8949 18.7165C71.3019 17.8285 71.9031 17.1348 72.6986 16.6353C73.5126 16.1358 74.5209 15.886 75.7234 15.886C77.4809 15.886 78.8221 16.4225 79.7471 17.4955C80.6721 18.55 81.1346 19.956 81.1346 21.7135C81.1346 22.805 80.9404 23.7855 80.5519 24.655C80.1634 25.5245 79.5714 26.2183 78.7759 26.7363C77.9804 27.2358 76.9629 27.4855 75.7234 27.4855ZM75.7234 25.9315C76.7039 25.9315 77.4531 25.7188 77.9711 25.2933C78.4891 24.8678 78.8499 24.3313 79.0534 23.6838C79.2754 23.0178 79.3864 22.3425 79.3864 21.658C79.3864 20.9735 79.2754 20.2983 79.0534 19.6323C78.8499 18.9663 78.4891 18.4205 77.9711 17.995C77.4531 17.5695 76.7039 17.3568 75.7234 17.3568C74.7799 17.3568 74.0306 17.5695 73.4756 17.995C72.9391 18.4205 72.5691 18.9663 72.3656 19.6323C72.1621 20.2983 72.0604 20.9735 72.0604 21.658C72.0604 22.3425 72.1621 23.0178 72.3656 23.6838C72.5691 24.3313 72.9391 24.8678 73.4756 25.2933C74.0306 25.7188 74.7799 25.9315 75.7234 25.9315Z" fill="#1E1E1E"/>
<path d="M52 27.208V15.9138H53.665L53.7483 18.7165H53.8038C53.8407 18.587 53.924 18.3743 54.0535 18.0783C54.2015 17.7638 54.405 17.44 54.664 17.107C54.9415 16.774 55.3023 16.4965 55.7463 16.2745C56.1903 16.034 56.7545 15.9138 57.439 15.9138C58.142 15.9138 58.7155 16.0525 59.1595 16.33C59.6035 16.589 59.9458 16.9313 60.1863 17.3568C60.4268 17.7823 60.6118 18.2355 60.7413 18.7165H60.7968C60.8338 18.5685 60.9262 18.3465 61.0742 18.0505C61.2222 17.7545 61.4443 17.44 61.7403 17.107C62.0363 16.774 62.4155 16.4965 62.878 16.2745C63.359 16.034 63.9418 15.9138 64.6263 15.9138C65.3478 15.9138 65.9397 16.0618 66.4023 16.3578C66.8832 16.6353 67.2625 17.0145 67.54 17.4955C67.8175 17.958 68.0117 18.4483 68.1227 18.9663C68.2523 19.4843 68.3355 19.9838 68.3725 20.4648C68.4095 20.9458 68.428 21.3343 68.428 21.6303V27.208H66.6798V21.6303C66.6798 21.3158 66.6613 20.9365 66.6243 20.4925C66.6058 20.03 66.5133 19.5768 66.3468 19.1328C66.1988 18.6703 65.949 18.291 65.5975 17.995C65.246 17.6805 64.7465 17.5233 64.099 17.5233C63.396 17.5233 62.8132 17.7268 62.3507 18.1338C61.9067 18.5408 61.583 19.0773 61.3795 19.7433C61.176 20.3908 61.0742 21.0938 61.0742 21.8523V27.208H59.3537V21.6303C59.3537 21.3158 59.3353 20.9365 59.2983 20.4925C59.2613 20.03 59.1688 19.5768 59.0208 19.1328C58.8728 18.6703 58.623 18.291 58.2715 17.995C57.92 17.6805 57.4205 17.5233 56.773 17.5233C56.0515 17.5233 55.4687 17.7268 55.0247 18.1338C54.5807 18.5408 54.257 19.0773 54.0535 19.7433C53.85 20.3908 53.7483 21.0938 53.7483 21.8523V27.208H52Z" fill="#1E1E1E"/>
<path fill-rule="evenodd" clip-rule="evenodd" d="M30.1877 0.013952C27.3869 6.43241 21.4384 12.6034 10 12.6034C23.9406 12.6034 30.848 20.6674 32.1239 39.9154C30.8451 40 29.2591 40 27.2 40H12.8C8.31958 40 6.07937 40 4.36808 39.1281C2.86278 38.3611 1.63893 37.1372 0.871948 35.6319C0 33.9206 0 31.6804 0 27.2V12.8C0 8.31958 0 6.07937 0.871948 4.36808C1.63893 2.86278 2.86278 1.63893 4.36808 0.871948C6.07937 0 8.31958 0 12.8 0H27.2C28.329 0 29.3158 7.30386e-08 30.1877 0.013952ZM33.3123 0.2014C34.6934 6.52498 37.3544 9.87976 39.999 11.4456C39.9902 7.84948 39.9073 5.89753 39.1281 4.36808C38.3611 2.86278 37.1372 1.63893 35.6319 0.871948C34.9706 0.53499 34.2303 0.328248 33.3123 0.2014ZM40 14.2613C35.2759 18.5525 33.2507 30.3536 32.5978 39.8787C33.8597 39.766 34.8072 39.5483 35.6319 39.1281C37.1372 38.3611 38.3611 37.1372 39.1281 35.6319C40 33.9206 40 31.6804 40 27.2V14.2613Z" fill="#1E1E1E"/>
</svg>
